<svg width="25" height="25" viewBox="0 0 25 25" fill="none" xmlns="http://www.w3.org/2000/svg">
    <g clip-path="url(#clip0_778_2808)">
        <path d="M14.7064 12.5C14.7064 13.519 14.3984 14.464 13.8744 15.254L10.9994 12.379C10.8114 12.191 10.7064 11.937 10.7064 11.672V7.601C12.9884 8.064 14.7064 10.081 14.7064 12.5ZM8.70642 12.086V7.601C6.15642 8.119 4.31042 10.577 4.77942 13.368C5.10442 15.302 6.59942 16.911 8.50842 17.36C9.97842 17.705 11.3684 17.393 12.4604 16.669L9.29142 13.5C8.91642 13.125 8.70642 12.616 8.70642 12.086ZM19.7064 7.5H17.7064C17.1534 7.5 16.7064 7.948 16.7064 8.5C16.7064 9.052 17.1534 9.5 17.7064 9.5H19.7064C20.2594 9.5 20.7064 9.052 20.7064 8.5C20.7064 7.948 20.2594 7.5 19.7064 7.5ZM19.7064 11.5H17.7064C17.1534 11.5 16.7064 11.948 16.7064 12.5C16.7064 13.052 17.1534 13.5 17.7064 13.5H19.7064C20.2594 13.5 20.7064 13.052 20.7064 12.5C20.7064 11.948 20.2594 11.5 19.7064 11.5ZM19.7064 15.5H17.7064C17.1534 15.5 16.7064 15.948 16.7064 16.5C16.7064 17.052 17.1534 17.5 17.7064 17.5H19.7064C20.2594 17.5 20.7064 17.052 20.7064 16.5C20.7064 15.948 20.2594 15.5 19.7064 15.5ZM24.7064 8.5V16.5C24.7064 19.257 22.4634 21.5 19.7064 21.5H5.70642C2.94942 21.5 0.706421 19.257 0.706421 16.5V8.5C0.706421 5.743 2.94942 3.5 5.70642 3.5H19.7064C22.4634 3.5 24.7064 5.743 24.7064 8.5ZM22.7064 8.5C22.7064 6.846 21.3604 5.5 19.7064 5.5H5.70642C4.05242 5.5 2.70642 6.846 2.70642 8.5V16.5C2.70642 18.154 4.05242 19.5 5.70642 19.5H19.7064C21.3604 19.5 22.7064 18.154 22.7064 16.5V8.5Z" fill="#01031A"/>
    </g>
    <defs>
        <clipPath id="clip0_778_2808">
            <rect width="24" height="24" fill="white" transform="translate(0.706421 0.5)"/>
        </clipPath>
    </defs>
</svg>
