<svg width="16" height="16" viewBox="0 0 16 16" fill="none" xmlns="http://www.w3.org/2000/svg">
    <path d="M14.6382 11.6642C14.6005 11.5506 14.3606 11.3832 13.9185 11.1625C13.7988 11.0929 13.6282 10.9983 13.4074 10.8783C13.1864 10.7584 12.9858 10.6478 12.806 10.5468C12.6259 10.4458 12.4571 10.348 12.2993 10.2534C12.2741 10.2345 12.1952 10.1793 12.0626 10.0876C11.9299 9.99608 11.818 9.92819 11.7263 9.88391C11.6348 9.8399 11.5448 9.81774 11.4564 9.81774C11.3301 9.81774 11.1724 9.90776 10.9831 10.0876C10.7938 10.2676 10.6201 10.4631 10.4623 10.6748C10.3045 10.8864 10.1372 11.082 9.96061 11.2619C9.78375 11.4419 9.63843 11.5318 9.52493 11.5318C9.46794 11.5318 9.39689 11.5159 9.31174 11.4846C9.22663 11.453 9.16188 11.426 9.11744 11.4042C9.07339 11.382 8.99779 11.3379 8.89039 11.2714C8.78279 11.2051 8.72295 11.1688 8.71034 11.1625C7.84545 10.6826 7.10367 10.1333 6.48489 9.51482C5.86631 8.89598 5.31696 8.15432 4.83716 7.28938C4.83086 7.27674 4.79447 7.21674 4.72823 7.10948C4.66189 7.00211 4.61768 6.92646 4.59558 6.88214C4.57349 6.838 4.54666 6.77326 4.51515 6.68805C4.48364 6.60284 4.46782 6.53186 4.46782 6.47498C4.46782 6.36141 4.5578 6.21614 4.73775 6.03936C4.91766 5.86267 5.11343 5.69531 5.32485 5.5376C5.53644 5.37989 5.73201 5.20622 5.91199 5.0169C6.0919 4.82748 6.18186 4.66973 6.18186 4.5435C6.18186 4.45517 6.15977 4.36512 6.11562 4.27361C6.07143 4.18191 6.00357 4.07 5.91199 3.93736C5.82037 3.80479 5.76515 3.72595 5.74617 3.70058C5.65157 3.54287 5.55382 3.37401 5.45269 3.19408C5.35155 3.01417 5.24117 2.81364 5.12116 2.59271C5.00125 2.37188 4.90662 2.20137 4.83709 2.08144C4.61625 1.63961 4.44898 1.39961 4.3353 1.36186C4.29109 1.34293 4.22475 1.33337 4.13645 1.33337C3.96589 1.33337 3.74339 1.36488 3.46878 1.4281C3.19407 1.49122 2.9779 1.55742 2.82005 1.62697C2.50437 1.75948 2.16979 2.14455 1.8162 2.78207C1.49422 3.37537 1.33325 3.9626 1.33325 4.54333C1.33325 4.71365 1.3443 4.87935 1.36639 5.04048C1.38848 5.20144 1.42795 5.38297 1.48484 5.58503C1.54162 5.78702 1.58743 5.93707 1.62206 6.03478C1.65672 6.13256 1.72144 6.30771 1.81617 6.56032C1.91077 6.81286 1.96765 6.96745 1.98659 7.02427C2.20754 7.64298 2.46954 8.19532 2.77255 8.68145C3.27109 9.48948 3.95143 10.3245 4.81318 11.1863C5.67496 12.048 6.5099 12.7283 7.31805 13.227C7.80415 13.5299 8.35672 13.7919 8.97537 14.013C9.03222 14.0318 9.18683 14.0886 9.43928 14.1835C9.69183 14.2782 9.86707 14.3429 9.96485 14.3776C10.0627 14.4123 10.2128 14.4582 10.4146 14.5151C10.6169 14.5719 10.7982 14.6114 10.9592 14.6337C11.1203 14.6555 11.286 14.6667 11.4564 14.6667C12.0371 14.6667 12.6244 14.5056 13.2179 14.1837C13.8554 13.8303 14.2404 13.4957 14.3729 13.1798C14.4427 13.0221 14.5087 12.8059 14.5718 12.5312C14.6351 12.2566 14.6666 12.0342 14.6666 11.8637C14.6668 11.775 14.6573 11.7088 14.6382 11.6642Z" fill="#949698"/>
</svg>
